<?xml version="1.0" ?><!DOCTYPE svg  PUBLIC '-//W3C//DTD SVG 1.1//EN'  'http://www.w3.org/Graphics/SVG/1.1/DTD/svg11.dtd'><svg height="512px" style="enable-background:new 0 0 512 512;" version="1.1" viewBox="0 0 512 512" width="512px" xml:space="preserve" xmlns="http://www.w3.org/2000/svg" xmlns:xlink="http://www.w3.org/1999/xlink"><g id="_x32_86_x2C__Banking_x2C__mobile_x2C__transfer_x2C__Chat"><g><path d="M411.592,144.538H235.767c-25.269,0-46.616,21.348-46.616,46.616v76.678c0,25.427,20.912,46.113,46.616,46.113h32.857    c1.295,0,2.509,0.627,3.26,1.682s0.943,2.408,0.519,3.631l-16.735,48.154l64.165-52.561c0.715-0.586,1.609-0.906,2.534-0.906    h89.226c25.694,0,46.598-20.687,46.598-46.113v-76.678C458.189,165.886,436.851,144.538,411.592,144.538z M342.393,269.09    c-3.721,2.691-8.871,4.994-14.984,6.092v18.211c0,2.209-1.791,4-4,4s-4-1.791-4-4v-17.524c-6.809-0.03-14.389-1.592-22.286-5.49    c-1.981-0.978-2.794-3.376-1.816-5.357s3.378-2.792,5.357-1.816c15.888,7.843,29.884,4.581,37.041-0.596    c4.646-3.36,6.968-7.715,6.37-11.949c-0.848-6.003-7.543-11.685-18.373-15.588c-25.288-8.918-30.633-22.952-27.519-32.258    c2.374-7.09,9.841-12.625,21.226-14.007V171.31c0-2.209,1.791-4,4-4s4,1.791,4,4v17.214c5.563,0.237,11.792,1.333,18.598,3.491    c2.106,0.667,3.272,2.916,2.605,5.021c-0.668,2.106-2.918,3.272-5.021,2.604c-22.393-7.097-35.596-0.932-37.82,5.713    c-2.049,6.12,4.156,15.672,22.619,22.183c18.799,6.776,22.857,16.695,23.607,22.006    C353.006,256.703,349.416,264.011,342.393,269.09z"/><path d="M340.107,344.179c-2.209,0-4,1.791-4,4v107.819H54.541V60.902h281.567v55.119c0,2.209,1.791,4,4,4s4-1.791,4-4V51.313    c0-21.473-17.478-38.942-38.96-38.942H84.979c-21.195,0-38.438,17.47-38.438,38.942v410.103c0,21.473,17.243,38.942,38.438,38.942    h220.168c21.482,0,38.96-17.47,38.96-38.942V348.179C344.107,345.97,342.316,344.179,340.107,344.179z M214.358,43.846h-38.069    c-2.209,0-4-1.791-4-4s1.791-4,4-4h38.069c2.209,0,4,1.791,4,4S216.567,43.846,214.358,43.846z M246.712,469.927h30.791    c2.209,0,4,1.791,4,4s-1.791,4-4,4h-30.791c-2.209,0-4-1.791-4-4S244.503,469.927,246.712,469.927z M179.938,469.927h30.771    c2.209,0,4,1.791,4,4s-1.791,4-4,4h-30.771c-2.209,0-4-1.791-4-4S177.729,469.927,179.938,469.927z M113.146,469.927h30.79    c2.209,0,4,1.791,4,4s-1.791,4-4,4h-30.79c-2.209,0-4-1.791-4-4S110.937,469.927,113.146,469.927z"/></g></g><g id="Layer_1"/></svg>